PathFileType	4	(X/Y/Z)	C:\Users\WrightLab\Desktop\Jo\P2_Trial34.trc
DataRate	CameraRate	NumFrames	NumMarkers	Units	OrigDataRate	OrigDataStartFrame	OrigNumFrames
100.00	100.00	       11	19	mm	100.00	498	       663
Frame#	Time	Headset_Front			Headset_Back			Headset_Left			Headset_Right			Left_Shoulder			Right_Shoulder			Sternum			C7			Left Elbow			Right Elbow			Left Wrist			Right Wrist			Left ASIS			Right ASIS			S2			Left Knee			Right Knee			Left Ankle			Right Ankle			
		X1	Y1	Z1	X2	Y2	Z2	X3	Y3	Z3	X4	Y4	Z4	X5	Y5	Z5	X6	Y6	Z6	X7	Y7	Z7	X8	Y8	Z8	X9	Y9	Z9	X10	Y10	Z10	X11	Y11	Z11	X12	Y12	Z12	X13	Y13	Z13	X14	Y14	Z14	X15	Y15	Z15	X16	Y16	Z16	X17	Y17	Z17	X18	Y18	Z18	X19	Y19	Z19	

498	4.970	-52.69613	1456.45825	2014.93079	13.16038	1725.28796	1878.94739	-130.57741	1555.29236	1932.36218	92.86834	1602.20032	1972.16553	189.83560	1499.18494	1836.45459				24.78496	1365.60901	1860.29382				341.30106	1176.30103	1904.26038	-224.35242	1164.80090	1760.39380	390.76443	958.50470	1977.03992	-246.58992	955.97443	1902.93982	85.05812	1072.26050	1896.13135	-42.26950	1043.59094	1859.47998	115.78751	998.16370	1639.04602	238.32971	549.72461	2013.42285	-90.35957	576.53418	1721.09802				-35.22466	141.92339	1735.42688	
499	4.980	-56.32804	1455.65027	2023.45203	10.86399	1724.76538	1888.44873	-133.81061	1554.17407	1940.34680				187.32106	1499.07336	1846.81226				22.13706	1365.12476	1869.77771				337.09174	1174.34290	1911.58691	-227.25922	1165.57959	1772.60291	385.39386	953.48663	1981.19946	-247.75780	959.90118	1917.52600	83.39778	1071.97668	1904.38416	-44.58492	1042.99878	1868.42480	115.21706	997.16132	1647.79053	233.83723	551.67761	2025.81885	-88.23357	574.26221	1719.51416				-37.72336	140.13475	1734.31775	
500	4.990	-58.71277	1454.73743	2032.57922	7.55891	1723.52112	1896.81506	-136.32333	1553.25586	1949.15735	87.11221	1600.96448	1990.25659	185.10129	1498.58057	1857.07007				19.68339	1363.88879	1877.67078				332.83783	1172.17725	1919.70923	-231.49855	1165.13843	1786.26501	380.01529	949.09875	1984.77991	-249.83662	962.53882	1932.00684	81.35134	1070.96448	1912.78662	-46.29008	1042.06458	1876.15015	115.53075	997.38733	1655.48145	229.33034	552.05408	2036.87927	-85.85503	574.41742	1720.22742				-40.32650	138.89258	1732.54211	
501	5.000	-61.96142	1453.74646	2041.24353	4.79300	1723.00452	1906.93811	-139.08075	1552.07971	1957.25452	83.90451	1599.98181	1998.78625	182.73837	1497.06433	1865.96375				16.96683	1363.17993	1887.30542				329.12613	1170.41565	1927.88049	-233.19185	1165.52319	1796.61340	375.20218	943.97571	1987.79797	-251.07515	965.37488	1945.08142	78.92062	1071.23840	1921.87207	-48.24471	1040.96838	1884.58936	115.04869	997.34778	1665.04114	224.40506	550.51880	2047.41296	-82.91385	573.57037	1721.64148	273.12180	237.29079	1943.46948	-42.86631	138.24829	1732.22827	
502	5.010	-65.00910	1452.40027	2050.55493	1.93428	1721.90906	1915.15674	-142.46062	1550.75635	1966.62488	80.99106	1599.01306	2009.14185	180.48373	1496.79199	1876.01636				14.18182	1362.77710	1896.22681				325.05551	1168.51343	1936.38367	-235.14775	1165.22998	1805.41553	369.81424	940.74530	1992.14526	-252.91577	967.74103	1957.79663	76.81893	1070.29297	1929.51489	-49.50924	1039.42810	1891.26331	115.07166	997.02496	1673.87415	218.95264	549.56342	2056.46216	-79.91674	573.20599	1723.44263	267.76227	227.03539	1968.45776	-44.66373	137.87512	1729.98181	
503	5.020	-67.37583	1450.29114	2058.65771	-1.22959	1720.52478	1925.63025	-144.56223	1549.32373	1975.56104	77.60807	1597.99939	2018.33667	177.87779	1495.98657	1887.69348				12.18829	1360.44409	1904.29785				321.72351	1166.05066	1942.67761	-236.61920	1164.53040	1815.70361	365.67975	936.15503	1995.20703	-254.97221	970.24475	1969.88452	74.64828	1069.77869	1938.97412	-50.95397	1037.59082	1899.19666	115.03024	995.56689	1683.45605	213.26877	548.61420	2066.39258	-75.91521	572.79431	1725.33154	262.08380	214.53061	1991.77490	-48.06977	138.31619	1727.16528	
504	5.030	-70.85735	1448.79529	2067.78320	-4.32715	1718.91333	1934.68616	-148.23116	1547.78418	1984.28931	75.02211	1596.52295	2028.28052	175.40724	1494.25940	1896.96960				9.58331	1359.55664	1913.33350				317.97888	1162.96167	1949.71509	-237.73329	1164.14954	1826.37976	361.35876	931.49115	1998.18225	-256.07007	971.97504	1982.32349	72.34918	1069.08386	1947.73584	-53.17767	1036.77197	1907.90161	114.41846	995.52228	1692.64160	206.86247	545.30072	2072.34326	-73.10123	572.33484	1728.16443	256.57449	201.21750	2014.53711	-48.68178	137.46721	1725.63696	
505	5.040	-73.25393	1446.52600	2076.74219	-7.29936	1717.74023	1945.20593	-150.64955	1545.49719	1993.94434	71.40466	1594.67285	2037.83386	172.90311	1492.76318	1906.97815				7.59225	1357.13232	1921.75427				314.47208	1160.75952	1956.73901	-237.29556	1163.55591	1830.12097	357.19382	928.20825	2001.85132	-258.17926	973.83234	1994.19885	70.17279	1068.57336	1957.01172	-54.95221	1035.06665	1916.03540	114.21170	993.95618	1702.59497	201.21185	541.62836	2078.93042	-70.25833	571.74384	1731.14905	250.48241	187.22845	2037.45679	-49.17376	137.80676	1724.33813	
506	5.050	-76.74670	1444.27283	2085.68823	-10.76725	1715.73474	1954.31128	-153.80272	1542.95886	2002.53186	68.65530	1593.08496	2048.02002	170.95990	1491.62561	1917.77063				5.15947	1355.87500	1930.68298				311.48706	1158.52844	1964.87048	-238.28043	1162.31714	1839.28064	353.58072	923.98029	2005.06287	-259.95367	974.57697	2004.36267	67.91577	1067.67737	1965.91553	-56.85550	1034.21802	1924.73389	114.00076	992.85266	1711.31348	196.23726	536.64557	2083.48584	-67.32733	571.70953	1733.10474	244.13243	175.11697	2062.66309	-49.46061	137.44463	1723.53589	
507	5.060	-79.34408	1441.80981	2094.93750	-13.67991	1714.62366	1965.90649	-156.62437	1540.68481	2011.84241	65.22208	1590.47571	2057.45166	168.49304	1490.64978	1929.20496				3.26836	1354.63464	1940.24548				308.78760	1156.11877	1971.59338	-239.00000	1160.78809	1849.15027	350.29565	919.99890	2007.41760	-261.57254	975.49927	2015.98169	65.76560	1065.94885	1975.25110	-59.09229	1033.00232	1933.48560	113.83757	991.53094	1719.94019	191.10471	530.23547	2086.77368	-65.14558	571.51892	1736.84338	236.81105	166.04103	2089.05762	-49.16848	137.49779	1722.10437	
508	5.070	-82.34790	1439.23547	2103.47168	-17.01261	1712.35693	1974.98877	-159.50952	1538.61365	2021.34692	61.96922	1588.95056	2068.44727	166.25270	1488.88745	1938.83142				0.27375	1353.08740	1949.29187				306.40735	1152.83960	1978.11230	-239.65898	1159.13672	1858.13074	347.16699	916.14246	2010.77856	-263.44888	975.49414	2025.42529	63.69018	1065.01196	1985.16455	-61.19192	1031.88550	1942.31079	113.35376	990.03650	1731.63318	186.16808	523.05945	2088.05347	-63.51511	571.52435	1739.57068	230.19783	160.62672	2115.70850	-48.84141	137.74457	1721.11389	
